<svg width="1920" height="235" viewBox="0 0 1920 235" fill="none" xmlns="http://www.w3.org/2000/svg">
<g clip-path="url(#clip0_21_6)">
<path d="M0 94L64 82.25C128 70.5 256 47 384 62.6919C512 78.0807 640 133.419 768 160.558C896 188 1024 188 1152 168.442C1280 148.581 1408 109.919 1536 78.3081C1664 47 1792 23.5 1920 19.5581C2048 15.9194 2176 31.0807 2304 47C2432 62.9194 2560 78.0807 2688 82.25C2816 86.4194 2944 78.0807 3072 78.3081C3200 78.0807 3328 86.4194 3456 109.692C3584 133.419 3712 172.081 3840 164.5C3968 156.919 4096 101.581 4224 90.0581C4352 78.0807 4480 109.919 4608 121.442C4736 133.419 4864 125.081 4992 133.192C5120 141 5248 164.5 5376 168.442C5504 172.081 5632 156.919 5760 137.058C5888 117.5 6016 94 6144 74.4419C6272 54.5807 6400 39.4194 6528 31.3081C6656 23.5 6784 23.5 6912 31.3081C7040 39.4194 7168 54.5807 7296 82.25C7424 109.919 7552 148.581 7680 160.558C7808 172.081 7936 156.919 8064 156.692C8192 156.919 8320 172.081 8448 164.5C8576 156.919 8704 125.081 8832 129.25C8960 133.419 9088 172.081 9152 191.942L9216 211.5V235H9152C9088 235 8960 235 8832 235C8704 235 8576 235 8448 235C8320 235 8192 235 8064 235C7936 235 7808 235 7680 235C7552 235 7424 235 7296 235C7168 235 7040 235 6912 235C6784 235 6656 235 6528 235C6400 235 6272 235 6144 235C6016 235 5888 235 5760 235C5632 235 5504 235 5376 235C5248 235 5120 235 4992 235C4864 235 4736 235 4608 235C4480 235 4352 235 4224 235C4096 235 3968 235 3840 235C3712 235 3584 235 3456 235C3328 235 3200 235 3072 235C2944 235 2816 235 2688 235C2560 235 2432 235 2304 235C2176 235 2048 235 1920 235C1792 235 1664 235 1536 235C1408 235 1280 235 1152 235C1024 235 896 235 768 235C640 235 512 235 384 235C256 235 128 235 64 235H0V94Z" fill="url(#paint0_linear_21_6)"/>
<path opacity="0.9" d="M0 141L64 129.25C128 117.5 256 94 384 70.5C512 47 640 23.5 768 31.3081C896 39.4194 1024 78.0806 1152 105.75C1280 133.419 1408 148.581 1536 148.808C1664 148.581 1792 133.419 1920 141C2048 148.581 2176 180.419 2304 188C2432 195.581 2560 180.419 2688 164.5C2816 148.581 2944 133.419 3072 141C3200 148.581 3328 180.419 3456 168.442C3584 156.919 3712 101.581 3840 66.5581C3968 31.0806 4096 15.9194 4224 31.3081C4352 47 4480 94 4608 97.9419C4736 101.581 4864 62.9194 4992 47C5120 31.0806 5248 39.4194 5376 43.0581C5504 47 5632 47 5760 74.4419C5888 101.581 6016 156.919 6144 148.808C6272 141 6400 70.5 6528 62.6919C6656 54.5806 6784 109.919 6912 121.442C7040 133.419 7168 101.581 7296 82.25C7424 62.9194 7552 54.5806 7680 47C7808 39.4194 7936 31.0806 8064 50.9419C8192 70.5 8320 117.5 8448 113.558C8576 109.919 8704 54.5806 8832 27.4419C8960 0 9088 0 9152 0H9216V235H9152C9088 235 8960 235 8832 235C8704 235 8576 235 8448 235C8320 235 8192 235 8064 235C7936 235 7808 235 7680 235C7552 235 7424 235 7296 235C7168 235 7040 235 6912 235C6784 235 6656 235 6528 235C6400 235 6272 235 6144 235C6016 235 5888 235 5760 235C5632 235 5504 235 5376 235C5248 235 5120 235 4992 235C4864 235 4736 235 4608 235C4480 235 4352 235 4224 235C4096 235 3968 235 3840 235C3712 235 3584 235 3456 235C3328 235 3200 235 3072 235C2944 235 2816 235 2688 235C2560 235 2432 235 2304 235C2176 235 2048 235 1920 235C1792 235 1664 235 1536 235C1408 235 1280 235 1152 235C1024 235 896 235 768 235C640 235 512 235 384 235C256 235 128 235 64 235H0V141Z" fill="url(#paint1_linear_21_6)"/>
</g>
<defs>
<linearGradient id="paint0_linear_21_6" x1="0" y1="235" x2="0" y2="19.0123" gradientUnits="userSpaceOnUse">
<stop stop-color="#CFE8F3"/>
<stop offset="1" stop-color="#A5D8EA"/>
</linearGradient>
<linearGradient id="paint1_linear_21_6" x1="0" y1="235" x2="0" y2="0" gradientUnits="userSpaceOnUse">
<stop stop-color="#CFE8F3"/>
<stop offset="1" stop-color="#A5D8EA"/>
</linearGradient>
<clipPath id="clip0_21_6">
<rect width="1920" height="235" fill="white"/>
</clipPath>
</defs>
</svg>
