<svg width="1920" height="235" viewBox="0 0 1920 235" fill="none" xmlns="http://www.w3.org/2000/svg">
<g clip-path="url(#clip0_21_16)">
<path d="M1920 188L1856 195.808C1792 203.919 1664 219.081 1536 203.692C1408 188 1280 141 1152 141C1024 141 896 188 768 207.558C640 227.419 512 219.081 384 207.558C256 195.581 128 180.419 0 180.192C-128 180.419 -256 195.581 -384 184.058C-512 172.081 -640 133.419 -768 109.692C-896 86.4194 -1024 78.0807 -1152 78.3081C-1280 78.0807 -1408 86.4194 -1536 94C-1664 101.581 -1792 109.919 -1920 121.442C-2048 133.419 -2176 148.581 -2304 137.058C-2432 125.081 -2560 86.4194 -2688 82.25C-2816 78.0807 -2944 109.919 -3072 133.192C-3200 156.919 -3328 172.081 -3456 172.308C-3584 172.081 -3712 156.919 -3840 137.058C-3968 117.5 -4096 94 -4224 105.75C-4352 117.5 -4480 164.5 -4608 176.25C-4736 188 -4864 164.5 -4992 148.808C-5120 133.419 -5248 125.081 -5376 129.25C-5504 133.419 -5632 148.581 -5760 156.692C-5888 164.5 -6016 164.5 -6144 160.558C-6272 156.919 -6400 148.581 -6528 137.058C-6656 125.081 -6784 109.919 -6912 90.0581C-7040 70.5 -7168 47 -7232 35.25L-7296 23.5V3.05176e-05H-7232C-7168 3.05176e-05 -7040 3.05176e-05 -6912 3.05176e-05C-6784 3.05176e-05 -6656 3.05176e-05 -6528 3.05176e-05C-6400 3.05176e-05 -6272 3.05176e-05 -6144 3.05176e-05C-6016 3.05176e-05 -5888 3.05176e-05 -5760 3.05176e-05C-5632 3.05176e-05 -5504 3.05176e-05 -5376 3.05176e-05C-5248 3.05176e-05 -5120 3.05176e-05 -4992 3.05176e-05C-4864 3.05176e-05 -4736 3.05176e-05 -4608 3.05176e-05C-4480 3.05176e-05 -4352 3.05176e-05 -4224 3.05176e-05C-4096 3.05176e-05 -3968 3.05176e-05 -3840 3.05176e-05C-3712 3.05176e-05 -3584 3.05176e-05 -3456 3.05176e-05C-3328 3.05176e-05 -3200 3.05176e-05 -3072 3.05176e-05C-2944 3.05176e-05 -2816 3.05176e-05 -2688 3.05176e-05C-2560 3.05176e-05 -2432 3.05176e-05 -2304 3.05176e-05C-2176 3.05176e-05 -2048 3.05176e-05 -1920 3.05176e-05C-1792 3.05176e-05 -1664 3.05176e-05 -1536 3.05176e-05C-1408 3.05176e-05 -1280 3.05176e-05 -1152 3.05176e-05C-1024 3.05176e-05 -896 3.05176e-05 -768 3.05176e-05C-640 3.05176e-05 -512 3.05176e-05 -384 3.05176e-05C-256 3.05176e-05 -128 3.05176e-05 0 3.05176e-05C128 3.05176e-05 256 3.05176e-05 384 3.05176e-05C512 3.05176e-05 640 3.05176e-05 768 3.05176e-05C896 3.05176e-05 1024 3.05176e-05 1152 3.05176e-05C1280 3.05176e-05 1408 3.05176e-05 1536 3.05176e-05C1664 3.05176e-05 1792 3.05176e-05 1856 3.05176e-05H1920V188Z" fill="url(#paint0_linear_21_16)"/>
<path opacity="0.9" d="M1920 164.5L1856 152.75C1792 141 1664 117.5 1536 125.308C1408 133.419 1280 172.081 1152 168.442C1024 164.5 896 117.5 768 86.1919C640 54.5806 512 39.4193 384 50.9419C256 62.9193 128 101.581 0 101.808C-128 101.581 -256 62.9193 -384 78.308C-512 94 -640 164.5 -768 195.808C-896 227.419 -1024 219.081 -1152 203.692C-1280 188 -1408 164.5 -1536 156.692C-1664 148.581 -1792 156.919 -1920 141C-2048 125.081 -2176 86.4193 -2304 66.558C-2432 47 -2560 47 -2688 47C-2816 47 -2944 47 -3072 66.558C-3200 86.4193 -3328 125.081 -3456 129.25C-3584 133.419 -3712 101.581 -3840 101.808C-3968 101.581 -4096 133.419 -4224 141C-4352 148.581 -4480 133.419 -4608 109.692C-4736 86.4193 -4864 54.5806 -4992 66.558C-5120 78.0806 -5248 133.419 -5376 141C-5504 148.581 -5632 109.919 -5760 90.058C-5888 70.5 -6016 70.5 -6144 86.1919C-6272 101.581 -6400 133.419 -6528 144.942C-6656 156.919 -6784 148.581 -6912 148.808C-7040 148.581 -7168 156.919 -7232 160.558L-7296 164.5V-4.57764e-05H-7232C-7168 -4.57764e-05 -7040 -4.57764e-05 -6912 -4.57764e-05C-6784 -4.57764e-05 -6656 -4.57764e-05 -6528 -4.57764e-05C-6400 -4.57764e-05 -6272 -4.57764e-05 -6144 -4.57764e-05C-6016 -4.57764e-05 -5888 -4.57764e-05 -5760 -4.57764e-05C-5632 -4.57764e-05 -5504 -4.57764e-05 -5376 -4.57764e-05C-5248 -4.57764e-05 -5120 -4.57764e-05 -4992 -4.57764e-05C-4864 -4.57764e-05 -4736 -4.57764e-05 -4608 -4.57764e-05C-4480 -4.57764e-05 -4352 -4.57764e-05 -4224 -4.57764e-05C-4096 -4.57764e-05 -3968 -4.57764e-05 -3840 -4.57764e-05C-3712 -4.57764e-05 -3584 -4.57764e-05 -3456 -4.57764e-05C-3328 -4.57764e-05 -3200 -4.57764e-05 -3072 -4.57764e-05C-2944 -4.57764e-05 -2816 -4.57764e-05 -2688 -4.57764e-05C-2560 -4.57764e-05 -2432 -4.57764e-05 -2304 -4.57764e-05C-2176 -4.57764e-05 -2048 -4.57764e-05 -1920 -4.57764e-05C-1792 -4.57764e-05 -1664 -4.57764e-05 -1536 -4.57764e-05C-1408 -4.57764e-05 -1280 -4.57764e-05 -1152 -4.57764e-05C-1024 -4.57764e-05 -896 -4.57764e-05 -768 -4.57764e-05C-640 -4.57764e-05 -512 -4.57764e-05 -384 -4.57764e-05C-256 -4.57764e-05 -128 -4.57764e-05 0 -4.57764e-05C128 -4.57764e-05 256 -4.57764e-05 384 -4.57764e-05C512 -4.57764e-05 640 -4.57764e-05 768 -4.57764e-05C896 -4.57764e-05 1024 -4.57764e-05 1152 -4.57764e-05C1280 -4.57764e-05 1408 -4.57764e-05 1536 -4.57764e-05C1664 -4.57764e-05 1792 -4.57764e-05 1856 -4.57764e-05H1920V164.5Z" fill="url(#paint1_linear_21_16)"/>
</g>
<defs>
<linearGradient id="paint0_linear_21_16" x1="1920" y1="3.05176e-05" x2="1920" y2="219.528" gradientUnits="userSpaceOnUse">
<stop stop-color="#CFE8F3"/>
<stop offset="1" stop-color="#A5D8EA"/>
</linearGradient>
<linearGradient id="paint1_linear_21_16" x1="1920" y1="-4.57764e-05" x2="1920" y2="217.375" gradientUnits="userSpaceOnUse">
<stop stop-color="#CFE8F3"/>
<stop offset="1" stop-color="#A5D8EA"/>
</linearGradient>
<clipPath id="clip0_21_16">
<rect width="1920" height="235" fill="white" transform="matrix(-1 0 0 -1 1920 235)"/>
</clipPath>
</defs>
</svg>
